ffmpeg started on 2016-11-27 at 21:28:10
Report written to "Output/NVENCh264/results/ffmpeg/sintelllhp3000k.log"
Command line:
Tools/ffmpeg/ffmpeg -benchmark -y -i Input/y4m/sintel.y4m -c:v h264_nvenc -preset llhp -b:v 3000k -an Output/NVENCh264/encoded/sintelllhp3000k.mkv
ffmpeg version N-82227-gdb23fde Copyright (c) 2000-2016 the FFmpeg developers
  built with gcc 5.4.0 (Ubuntu 5.4.0-6ubuntu1~16.04.2) 20160609
  configuration: --prefix=/home/jaroslav/ffmpeg_build --pkg-config-flags=--static --extra-cflags=-I/home/jaroslav/ffmpeg_build/include --extra-ldflags=-L/home/jaroslav/ffmpeg_build/lib --bindir=/home/jaroslav/bin --enable-gpl --enable-libass --enable-libfdk-aac --enable-libfreetype --enable-libmp3lame --enable-libopus --enable-libtheora --enable-libvorbis --enable-libvpx --enable-libx264 --enable-libx265 --enable-nvenc --enable-libmfx --enable-libxvid --enable-libgsm --enable-libopencore-amrnb --enable-version3 --enable-nonfree
  libavutil      55. 35.100 / 55. 35.100
  libavcodec     57. 66.101 / 57. 66.101
  libavformat    57. 57.100 / 57. 57.100
  libavdevice    57.  2.100 / 57.  2.100
  libavfilter     6. 66.100 /  6. 66.100
  libswscale      4.  3.100 /  4.  3.100
  libswresample   2.  4.100 /  2.  4.100
  libpostproc    54.  2.100 / 54.  2.100
Input #0, yuv4mpegpipe, from 'Input/y4m/sintel.y4m':
  Duration: 00:00:20.83, start: 0.000000, bitrate: 2057307 kb/s
    Stream #0:0: Video: rawvideo (I420 / 0x30323449), yuv420p(progressive), 4096x1744, SAR 1:1 DAR 256:109, 24 fps, 24 tbr, 24 tbn, 24 tbc
[h264_nvenc @ 0x29341c0] The variable bitrate rate-control requires the 'qmin' and/or 'qmax' option set.
Output #0, matroska, to 'Output/NVENCh264/encoded/sintelllhp3000k.mkv':
  Metadata:
    encoder         : Lavf57.57.100
    Stream #0:0: Video: h264 (h264_nvenc) (Main) (H264 / 0x34363248), yuv420p, 4096x1744 [SAR 1:1 DAR 256:109], q=-1--1, 3000 kb/s, 24 fps, 1k tbn, 24 tbc
    Metadata:
      encoder         : Lavc57.66.101 h264_nvenc
    Side data:
      cpb: bitrate max/min/avg: 0/0/3000000 buffer size: 6000000 vbv_delay: -1
Stream mapping:
  Stream #0:0 -> #0:0 (rawvideo (native) -> h264 (h264_nvenc))
Press [q] to stop, [?] for help
frame=    7 fps=0.0 q=0.0 size=       0kB time=00:00:00.00 bitrate=N/A speed=   0x    frame=   28 fps= 27 q=0.0 size=       0kB time=00:00:00.00 bitrate=N/A speed=   0x    frame=   49 fps= 32 q=49.0 size=       1kB time=00:00:00.75 bitrate=   8.0kbits/s speed=0.491x    frame=   70 fps= 34 q=48.0 size=       1kB time=00:00:01.62 bitrate=   3.7kbits/s speed=0.797x    frame=   91 fps= 36 q=47.0 size=       1kB time=00:00:02.50 bitrate=   2.4kbits/s speed=0.978x    frame=  112 fps= 37 q=48.0 size=       1kB time=00:00:03.37 bitrate=   1.8kbits/s speed= 1.1x    frame=  133 fps= 37 q=45.0 size=       1kB time=00:00:04.25 bitrate=   1.4kbits/s speed=1.19x    frame=  154 fps= 29 q=44.0 size=    1687kB time=00:00:05.12 bitrate=2696.2kbits/s speed=0.968x    frame=  155 fps= 18 q=45.0 size=    1687kB time=00:00:05.16 bitrate=2674.3kbits/s speed=0.598x    frame=  156 fps= 13 q=45.0 size=    1687kB time=00:00:05.20 bitrate=2653.2kbits/s speed=0.428x    frame=  157 fps= 12 q=45.0 size=    1687kB time=00:00:05.25 bitrate=2632.0kbits/s speed=0.407x    frame=  178 fps= 13 q=47.0 size=    1687kB time=00:00:06.12 bitrate=2256.1kbits/s speed=0.456x    frame=  199 fps= 14 q=44.0 size=    1687kB time=00:00:07.00 bitrate=1974.1kbits/s speed=0.502x    frame=  220 fps= 15 q=41.0 size=    1687kB time=00:00:07.87 bitrate=1754.8kbits/s speed=0.545x    frame=  241 fps= 16 q=44.0 size=    1687kB time=00:00:08.75 bitrate=1579.3kbits/s speed=0.585x    frame=  254 fps= 16 q=41.0 size=    1687kB time=00:00:09.29 bitrate=1487.2kbits/s speed=0.601x    frame=  275 fps= 17 q=39.0 size=    3536kB time=00:00:10.16 bitrate=2849.1kbits/s speed=0.636x    frame=  296 fps= 18 q=40.0 size=    3984kB time=00:00:11.04 bitrate=2955.2kbits/s speed=0.669x    frame=  317 fps= 19 q=40.0 size=    3984kB time=00:00:11.91 bitrate=2738.2kbits/s speed= 0.7x    frame=  338 fps= 19 q=36.0 size=    3984kB time=00:00:12.79 bitrate=2551.0kbits/s speed=0.73x    frame=  359 fps= 20 q=36.0 size=    3984kB time=00:00:13.66 bitrate=2387.7kbits/s speed=0.758x    frame=  380 fps= 20 q=34.0 size=    3984kB time=00:00:14.54 bitrate=2244.0kbits/s speed=0.784x    frame=  401 fps= 21 q=37.0 size=    3984kB time=00:00:15.41 bitrate=2116.6kbits/s speed=0.809x    frame=  422 fps= 22 q=36.0 size=    5831kB time=00:00:16.29 bitrate=2931.8kbits/s speed=0.832x    frame=  443 fps= 22 q=38.0 size=    5831kB time=00:00:17.16 bitrate=2782.4kbits/s speed=0.855x    frame=  464 fps= 23 q=40.0 size=    6333kB time=00:00:18.04 bitrate=2875.2kbits/s speed=0.876x    frame=  485 fps= 23 q=37.0 size=    6333kB time=00:00:18.91 bitrate=2742.2kbits/s speed=0.896x    frame=  497 fps= 23 q=39.0 size=    6333kB time=00:00:19.41 bitrate=2671.6kbits/s speed=0.898x    frame=  500 fps= 23 q=37.0 Lsize=    7587kB time=00:00:20.79 bitrate=2989.0kbits/s speed=0.957x    
video:7582kB audio:0kB subtitle:0kB other streams:0kB global headers:0kB muxing overhead: 0.059118%
bench: utime=0.844s
bench: maxrss=1188364kB
